<svg width="26" height="75" xmlns="http://www.w3.org/2000/svg" data-name="Layer 1">

 <title>stave-header-time-signature</title>
 <g>
  <title>Layer 1</title>
  <path id="svg_7" d="m17.80568,26.65779l5.38,-1.77l0.7,-6.08l-6.09,2l0,-18.36l-2.14,0l0,19.07l-6.66,2.19l0,-17.88l-2.15,0l0,18.59l-4.64,1.53l-0.65,6.07l5.34,-1.76l0,18.52l-4.64,1.53l-0.7,6.11l5.34,-1.76l0,17.58l2.15,0l0,-18.29l6.61,-2.17l0,17.07l2.15,0l0,-17.79l5.38,-1.77l0.7,-6.08l-6.09,2l0.01,-18.55zm-8.81,21.45l0,-18.55l6.66,-2.19l0,18.55l-6.66,2.19z"/>
 </g>
</svg>