<svg width="192" height="192" xmlns="http://www.w3.org/2000/svg" data-name="Layer 1">

 <title>stave-header</title>
 <g>
  <title>Layer 1</title>
  <line id="svg_1" stroke-width="2px" stroke-miterlimit="10" stroke="#000" fill="none" y2="48" x2="192" y1="48" class="cls-1"/>
  <line id="svg_2" stroke-width="2px" stroke-miterlimit="10" stroke="#000" fill="none" y2="72" x2="192" y1="72" class="cls-1"/>
  <line id="svg_3" stroke-width="2px" stroke-miterlimit="10" stroke="#000" fill="none" y2="96" x2="192" y1="96" class="cls-1"/>
  <line id="svg_4" stroke-width="2px" stroke-miterlimit="10" stroke="#000" fill="none" y2="120" x2="192" y1="120" class="cls-1"/>
  <line id="svg_5" stroke-width="2px" stroke-miterlimit="10" stroke="#000" fill="none" y2="144" x2="192" y1="144" class="cls-1"/>
  <path id="svg_6" d="m71.9,117.49c0,-12.67 -12.67,-20.76 -21,-20.76a13.63,13.63 0 0 0 -2.47,0.23l-3.18,-15.53c15.75,-14.23 14.3,-32.87 14.3,-37.61c0,-4.9 -0.64,-18.63 -9.58,-23.32c-12.14,4.9 -13.1,23.74 -13.1,27.15s0.21,2.77 2.34,18c0.16,1.14 0.4,2.59 0.71,4.29c-13.15,13.15 -23.92,23.85 -23.92,40.31s12.78,32.58 30.24,32.58a30.19,30.19 0 0 0 8.41,-1.12c1.85,9.54 3.09,17 3.09,19.86c0,10.54 -7.67,15 -13.42,15s-6.81,-4 -6.81,-4c9.26,0 8.2,-9.61 8.2,-9.61l0,0a8.53,8.53 0 0 0 -17.05,0l0,0c0,0.06 0,0.12 0,0.19s0,0 0,0s0,0.05 0,0.08c0.08,8 3.39,15.79 16,15.79c12.78,0 16.08,-12.25 16.08,-17a61.26,61.26 0 0 0 -0.75,-9.15l-2.5,-12.13c9.75,-4.15 14.41,-13.74 14.41,-23.25zm-19.9,-83.26c3.94,0 4.79,2.77 4.79,7.56c0,4.54 -2.86,13.45 -14.44,25.67c-0.16,-0.79 -0.32,-1.54 -0.47,-2.24c-4.59,-21.83 6.12,-30.99 10.12,-30.99zm-5.87,105.94c-20.44,0 -24.06,-19.59 -24.06,-25.34s4,-17.18 20.54,-31.16c0.89,4.33 1.89,9.11 2.94,14.11a20.73,20.73 0 0 0 -13.06,19.5c0,12.46 13.1,14.37 13.1,14.37c-6.71,-5.32 -7,-8.94 -7,-11.39c0,-2.17 1.09,-10.34 9.16,-12.19c2.28,10.76 4.61,21.83 6.44,31.17a31.16,31.16 0 0 1 -8.06,0.93zm10.87,-1.89c-1.72,-8.36 -4,-19.38 -6.3,-30.57l0.57,0c11.28,0 13.52,13.84 13.52,16.18c-0.03,1.8 1.05,10.49 -7.79,14.39z"/>
 </g>
</svg>